<svg xmlns="http://www.w3.org/2000/svg" width="16" height="20" viewBox="0 0 16 20"><g fill="#EAAB00"><path d="M12.667 7H4.333C4.15 7 4 7.223 4 7.5s.15.5.333.5h8.334c.184 0 .333-.223.333-.5s-.15-.5-.333-.5zM4.333 6h3.334C7.85 6 8 5.777 8 5.5S7.85 5 7.667 5H4.333C4.15 5 4 5.223 4 5.5s.15.5.333.5zm8.334 4H4.333c-.184 0-.333.223-.333.5s.15.5.333.5h8.334c.184 0 .333-.223.333-.5s-.15-.5-.333-.5zm0 3H4.333c-.184 0-.333.223-.333.5s.15.5.333.5h8.334c.184 0 .333-.223.333-.5s-.15-.5-.333-.5zm0 2H4.333c-.184 0-.333.223-.333.5s.15.5.333.5h8.334c.184 0 .333-.223.333-.5s-.15-.5-.333-.5z"/><path d="M11.035 0H0v20h16V4.862L11.035 0zm.199 1.138l3.604 3.529h-3.604V1.138zM.681 19.333V.667h9.872v4.666h4.766v14H.681z"/></g></svg>